# xmcd
#
# Track frame offsets:
#	150
#	13437
#	24539
#	36553
#	54445
#	70500
#	84269
#	97674
#	115131
#	127933
#	140507
#
# Disc length: 2009 seconds
#
# Revision: 0
# Processed by: cddbd v1.4PL0 Copyright (c) Steve Scherf et al.
# Submitted via: EasyCDDAExtractor 4.5.0.2
#
DISCID=8807d70b
DTITLE=Wild Rose - Breaking New Ground
DYEAR=1900
DGENRE=Country
TTITLE0=Breaking New Ground
TTITLE1=I Can't Lose What I Never Had
TTITLE2=Go Down Swingin'
TTITLE3=Where Did We Go Wrong
TTITLE4=Lonesome Highway (to The End Of The Rainow)
TTITLE5=On The Bayou
TTITLE6=Home Sweet Highway
TTITLE7=Teach Me How To Say Goodbye
TTITLE8=Who Needs You
TTITLE9=Easy To Say/ Hard To Prove
TTITLE10=Wild Rose
EXTD=
EXTT0=
EXTT1=
EXTT2=
EXTT3=
EXTT4=
EXTT5=
EXTT6=
EXTT7=
EXTT8=
EXTT9=
EXTT10=
PLAYORDER=
